<mxfile host="app.diagrams.net" modified="2023-08-27T18:34:14.256Z" agent="Mozilla/5.0 (Macintosh; Intel Mac OS X 10_15_7) AppleWebKit/537.36 (KHTML, like Gecko) Chrome/116.0.0.0 Safari/537.36" version="21.6.9" etag="Y1vSdY5lEQV9CWYtVmA2" type="github">
  <diagram name="Page-1" id="71eHuJ3OybVffFrMe-5w">
    <mxGraphModel>
      <root>
        <mxCell id="0" />
        <mxCell id="1" parent="0" />
      </root>
    </mxGraphModel>
  </diagram>
</mxfile>
